name Walk4.mot
datacolumns 19
datarows 27
range 1.21500000 1.34500000
endheader

                time	   L_ground_force_vx	   L_ground_force_vy	   L_ground_force_vz	   L_ground_force_px	   L_ground_force_py	   L_ground_force_pz	   R_ground_force_vx	   R_ground_force_vy	   R_ground_force_vz	   R_ground_force_px	   R_ground_force_py	   R_ground_force_pz	   L_ground_torque_x	   L_ground_torque_y	   L_ground_torque_z	   R_ground_torque_x	   R_ground_torque_y	   R_ground_torque_z	
          1.21500000	        -10.15148936	         88.59225078	         -6.38818038	         -0.19709676	          0.00000000	         -0.01397310	         -0.00000000	          0.00000000	         -0.00000000	          0.00000000	          0.00000000	          0.00000000	          0.00000000	          0.11294744	          0.00000000	          0.00000000	          0.00000000	          0.00000000	
          1.22000000	        -13.92311721	        119.73528881	         -8.14334192	         -0.24553028	          0.00000000	         -0.01747325	         -0.00000000	          0.00000000	         -0.00000000	          0.00000000	          0.00000000	          0.00000000	          0.00000000	          0.15996496	          0.00000000	          0.00000000	          0.00000000	          0.00000000	
          1.22500000	        -18.10727975	        153.59928930	         -9.87682526	         -0.29169865	          0.00000000	         -0.02086147	         -0.00000000	          0.00000000	         -0.00000000	         -0.00000000	          0.00000000	         -0.00000000	          0.00000000	          0.21355310	          0.00000000	          0.00000000	          0.00000000	          0.00000000	
          1.23000000	        -22.55350405	        188.15715684	        -11.37203451	         -0.33257718	          0.00000000	         -0.02398520	         -0.00000000	         -0.00000000	         -0.00000000	         -0.00000000	          0.00000000	         -0.00000000	          0.00000000	          0.27147767	          0.00000000	          0.00000000	          0.00000000	          0.00000000	
          1.23500000	        -27.17728200	        221.64376186	        -12.36334308	         -0.36661736	          0.00000000	         -0.02679565	         -0.00000000	         -0.00000001	         -0.00000000	         -0.00000000	          0.00000000	         -0.00000000	          0.00000000	          0.33195197	          0.00000000	          0.00000000	         -0.00000000	          0.00000000	
          1.24000000	        -31.93222469	        253.05246987	        -12.60727309	         -0.39335858	          0.00000000	         -0.02930147	          0.00000000	         -0.00000001	         -0.00000000	         -0.00000000	          0.00000000	         -0.00000000	          0.00000000	          0.39358259	          0.00000000	          0.00000000	         -0.00000000	          0.00000000	
          1.24500000	        -36.75209216	        281.87069353	        -11.94831418	         -0.41307901	          0.00000000	         -0.03153868	          0.00000000	         -0.00000002	         -0.00000000	         -0.00000000	          0.00000000	         -0.00000000	          0.00000000	          0.45457593	          0.00000000	          0.00000000	         -0.00000000	          0.00000000	
          1.25000000	        -41.52609974	        307.83467914	        -10.33989249	         -0.42651297	          0.00000000	         -0.03354968	          0.00000000	         -0.00000002	         -0.00000000	         -0.00000000	          0.00000000	         -0.00000000	          0.00000000	          0.51263663	          0.00000000	          0.00000000	         -0.00000000	          0.00000000	
          1.25500000	        -46.11075116	        330.93503936	         -7.84481268	         -0.43463900	          0.00000000	         -0.03537027	          0.00000000	         -0.00000003	         -0.00000000	         -0.00000000	          0.00000000	         -0.00000000	          0.00000000	          0.56599527	          0.00000000	          0.00000000	         -0.00000000	          0.00000000	
          1.26000000	        -50.37724851	        351.42294406	         -4.62102418	         -0.43851998	          0.00000000	         -0.03702355	          0.00000000	         -0.00000004	         -0.00000000	         -0.00000000	          0.00000000	         -0.00000000	          0.00000000	          0.61469678	          0.00000000	          0.00000000	         -0.00000000	          0.00000000	
          1.26500000	        -54.25488252	        369.71547605	         -0.87986891	         -0.43918787	          0.00000000	         -0.03852083	          0.00000000	         -0.00000005	         -0.00000000	         -0.00000000	          0.00000000	         -0.00000000	          0.00000000	          0.66040207	          0.00000000	          0.00000000	         -0.00000000	          0.00000000	
          1.27000000	        -57.73827030	        386.29787021	          3.16230454	         -0.43757268	          0.00000000	         -0.03986760	          0.00000001	         -0.00000006	         -0.00000000	         -0.00000000	          0.00000000	         -0.00000000	          0.00000000	          0.70545267	          0.00000000	          0.00000000	         -0.00000000	          0.00000000	
          1.27500000	        -60.86329770	        401.68105591	          7.30928472	         -0.43446282	          0.00000000	         -0.04106768	          0.00000001	         -0.00000007	         -0.00000000	         -0.00000000	          0.00000000	         -0.00000000	          0.00000000	          0.75225197	          0.00000000	          0.00000000	         -0.00000000	          0.00000000	
          1.28000000	        -63.67138479	        416.37428719	         11.38842255	         -0.43049438	          0.00000000	         -0.04212384	          0.00000001	         -0.00000007	          0.00000000	         -0.00000000	          0.00000000	         -0.00000000	          0.00000000	          0.80297666	          0.00000000	          0.00000000	         -0.00000000	          0.00000000	
          1.28500000	        -66.17931908	        430.83407346	         15.24253418	         -0.42615874	          0.00000000	         -0.04303806	          0.00000001	         -0.00000007	          0.00000000	         -0.00000000	          0.00000000	         -0.00000000	          0.00000000	          0.85984630	          0.00000000	          0.00000000	         -0.00000000	          0.00000000	
          1.29000000	        -68.36697007	        445.39217459	         18.72392419	         -0.42181620	          0.00000000	         -0.04380992	          0.00000001	         -0.00000005	          0.00000000	         -0.00000000	          0.00000000	         -0.00000000	          0.00000000	          0.92492644	          0.00000000	          0.00000000	         -0.00000000	          0.00000000	
          1.29500000	        -70.18695095	        460.21060489	         21.70326768	         -0.41771341	          0.00000000	         -0.04443730	          0.00000001	         -0.00000002	          0.00000000	          0.00000000	          0.00000000	          0.00000000	          0.00000000	          0.99975047	          0.00000000	          0.00000000	         -0.00000000	          0.00000000	
          1.30000000	        -71.58719982	        475.28947867	         24.08939696	         -0.41400376	          0.00000000	         -0.04492113	          0.00000001	          0.00000003	          0.00000001	          0.00000000	          0.00000000	          0.00000000	          0.00000000	          1.08506807	          0.00000000	          0.00000000	         -0.00000000	          0.00000000	
          1.30500000	        -72.53183798	        490.51316247	         25.84687472	         -0.41076643	          0.00000000	         -0.04526757	          0.00000000	          0.00000011	          0.00000001	          0.00000000	          0.00000000	          0.00000000	          0.00000000	          1.18068708	          0.00000000	          0.00000000	         -0.00000000	          0.00000000	
          1.31000000	        -73.01422868	        505.70047868	         27.00079081	         -0.40802429	          0.00000000	         -0.04548899	         -0.00000000	          0.00000022	          0.00000001	          0.00000000	          0.00000000	          0.00000000	          0.00000000	          1.28479958	          0.00000000	          0.00000000	          0.00000000	          0.00000000	
          1.31500000	        -73.05855230	        520.64192394	         27.62487643	         -0.40575965	          0.00000000	         -0.04560368	         -0.00000001	          0.00000036	          0.00000002	          0.00000000	          0.00000000	          0.00000000	          0.00000000	          1.39374353	          0.00000000	          0.00000000	          0.00000000	          0.00000000	
          1.32000000	        -72.70671148	        535.12624037	         27.81471806	         -0.40392687	          0.00000000	         -0.04563199	         -0.00000003	          0.00000054	          0.00000002	          0.00000000	          0.00000000	          0.00000000	          0.00000000	          1.50292118	          0.00000000	          0.00000000	          0.00000000	          0.00000000	
          1.32500000	        -72.00432030	        548.96060216	         27.66155373	         -0.40246364	          0.00000000	         -0.04559294	         -0.00000005	          0.00000075	          0.00000002	          0.00000000	          0.00000000	          0.00000000	          0.00000000	          1.60779211	          0.00000000	          0.00000000	          0.00000000	          0.00000000	
          1.33000000	        -70.99886045	        561.97779642	         27.24292444	         -0.40130023	          0.00000000	         -0.04550419	         -0.00000008	          0.00000098	          0.00000003	          0.00000000	          0.00000000	          0.00000000	          0.00000000	          1.70407257	          0.00000000	          0.00000000	          0.00000000	          0.00000000	
          1.33500000	        -69.74148905	        574.03347907	         26.62879465	         -0.40036562	          0.00000000	         -0.04538287	         -0.00000011	          0.00000123	          0.00000003	          0.00000000	          0.00000000	          0.00000000	          0.00000000	          1.78797392	          0.00000000	          0.00000000	          0.00000000	          0.00000000	
          1.34000000	        -68.28507559	        585.00614265	         25.88891926	         -0.39959146	          0.00000000	         -0.04524534	         -0.00000015	          0.00000146	          0.00000002	          0.00000000	          0.00000000	          0.00000000	          0.00000000	          1.85647839	          0.00000000	          0.00000000	          0.00000000	          0.00000000	
          1.34500000	        -66.67941562	        594.79993849	         25.09369408	         -0.39891463	          0.00000000	         -0.04510742	         -0.00000019	          0.00000164	          0.00000001	          0.00000000	          0.00000000	          0.00000000	          0.00000000	          1.90751862	          0.00000000	          0.00000000	          0.00000000	          0.00000000	
